# Blender v3.5.0 OBJ File: ''
# www.blender.org
mtllib billboardgrass.mtl
o Plane.001
v 0.500000 -1.000000 -0.866026
v -0.500000 -1.000000 0.866025
v -0.500000 1.000000 0.866026
v 0.500000 1.000000 -0.866025
vt 0.000000 0.000000
vt 1.000000 0.000000
vt 1.000000 1.000000
vt 0.000000 1.000000
vn -0.8660 0.0000 -0.5000
usemtl Material.002
s 1
f 1/1/1 2/2/1 3/3/1 4/4/1
o Plane.002_Plane.003
v -1.000000 -1.000000 0.000000
v 1.000000 -1.000000 0.000000
v 1.000000 1.000000 -0.000000
v -1.000000 1.000000 -0.000000
vt 0.000000 0.000000
vt 1.000000 0.000000
vt 1.000000 1.000000
vt 0.000000 1.000000
vn 0.0000 0.0000 1.0000
usemtl Material.004
s 1
f 5/5/2 6/6/2 7/7/2 8/8/2
o Plane.003_Plane.004
v 0.500000 -1.000000 0.866025
v -0.500000 -1.000000 -0.866025
v -0.500000 1.000000 -0.866025
v 0.500000 1.000000 0.866025
vt 0.000000 0.000000
vt 1.000000 0.000000
vt 1.000000 1.000000
vt 0.000000 1.000000
vn 0.8660 0.0000 -0.5000
usemtl Material.005
s 1
f 9/9/3 10/10/3 11/11/3 12/12/3
